<?xml version="1.0" encoding="utf-8"?>
<!-- Generator: Adobe Illustrator 16.0.2, SVG Export Plug-In . SVG Version: 6.00 Build 0)  -->
<!DOCTYPE svg PUBLIC "-//W3C//DTD SVG 1.1//EN" "http://www.w3.org/Graphics/SVG/1.1/DTD/svg11.dtd">
<svg version="1.1" id="圖層_1" xmlns="http://www.w3.org/2000/svg" xmlns:xlink="http://www.w3.org/1999/xlink" x="0px" y="0px"
	 width="320px" height="100px" viewBox="0 110 320 100" enable-background="new 0 110 320 100" xml:space="preserve">
<g id="plane">
	<g transform="matrix(1,0,0,-1,0,64)">
		<path fill="#9FBAFF" stroke="#0014AA" d="M160-128.182h0.513l2.049,0.443l3.587,1.479l4.099,2.813l3.075,3.697l1.024,3.699
			l0.513,3.994v-0.135l33.305,6.806l-1.538-1.184l-1.024,0.443l-1.024-0.443l-1.025,0.148l-0.512-0.444l-1.024-1.331l-0.513-1.923
			v-2.368l0.513-1.774l0.512-0.592l1.024-0.297h16.396l1.024,0.297l0.512,0.592l1.025,1.774v2.368l-0.513,1.923l-2.049,2.07
			l-0.513-0.443l-0.513,0.443l-0.512-0.443l-1.024,0.443l-1.025-0.443l-2.05,2.366l89.666,18.05l3.074,0.888l2.05,0.888l6.148,2.959
			v1.479l-8.198-2.071l-3.587-0.739l-4.61-0.74l-38.429-4.734l-0.512,1.183l-1.025,0.443l-1.537-0.886l-0.513-1.184l-19.471-2.367
			l-0.512,1.182l-1.025,0.445l-1.536-1.036l-0.513-1.036l-16.396-2.071h-10.248l-0.513,1.036l-1.024,0.591l-1.024-0.591
			l-0.513-1.036h-29.205v19.232l-0.513,2.664l-0.513,2.366l-2.562,4.883v0.592l1.024,0.591l35.867,9.469l1.024,0.443l0.513,0.445
			l2.049,1.922l-47.139-5.03l-3.587,4.29h-2.049l-3.587-4.29l-47.139,5.03l2.05-1.922l0.512-0.445l1.024-0.443l35.867-9.469
			l1.024-0.591v-0.592l-2.562-4.883l-0.512-2.514l-0.512-2.516V-93.55h-29.206l-0.512,1.036l-1.025,0.739l-1.025-0.739l-0.512-1.036
			h-10.248l-16.908,2.071l-0.512,0.888l-1.538,0.887l-1.024-0.442l-0.513-1.036l-18.445,2.515l-0.512,0.886l-1.538,0.888
			l-1.024-0.444l-0.513-0.887l-38.94,4.734l-4.611,0.74l-3.587,0.739L4.75-79.94v-1.479l6.148-2.959l2.049-0.888l3.075-0.888
			l89.666-18.05l-2.049-2.366l-1.025,0.443l-1.025-0.443l-0.512,0.443l-0.512-0.443l-0.512,0.443l-1.538-2.07l-0.512-1.923v-2.368
			l0.512-1.774l0.513-0.592l1.025-0.297h16.396l1.025,0.297l0.513,0.592l0.512,1.774v2.368l-0.512,1.923l-1.025,1.331l-0.512,0.444
			l-1.024-0.148l-1.025,0.443l-1.025-0.443l-1.537,1.184l33.305-6.806v0.135l0.512-3.994l1.025-3.699l3.074-3.697l4.099-2.813
			l3.586-1.479l2.05-0.443H160z"/>
	</g>
</g>
<g id="objGroup">
	<path id="obj9" fill="#F2F7C8" stroke="#00508C" d="M289.354,158.317c0,3.556-2.883,6.437-6.438,6.437l0,0
		c-3.556,0-6.438-2.881-6.438-6.437l0,0c0-3.555,2.883-6.438,6.438-6.438l0,0C286.471,151.881,289.354,154.763,289.354,158.317
		L289.354,158.317z"/>
	<path id="obj8" fill="#F2F7C8" stroke="#00508C" d="M272.542,162.063c0,3.555-2.883,6.438-6.438,6.438l0,0
		c-3.556,0-6.438-2.883-6.438-6.438l0,0c0-3.556,2.883-6.437,6.438-6.437l0,0C269.659,155.626,272.542,158.508,272.542,162.063
		L272.542,162.063z"/>
	<path id="obj7" fill="#F2F7C8" stroke="#00508C" d="M257.04,164.754c0,3.555-2.883,6.438-6.438,6.438l0,0
		c-3.556,0-6.438-2.883-6.438-6.438l0,0c0-3.556,2.883-6.437,6.438-6.437l0,0C254.157,158.318,257.04,161.199,257.04,164.754
		L257.04,164.754z"/>
	<path id="obj6" fill="#F2F7C8" stroke="#00508C" d="M240.103,168.5c0,3.557-2.883,6.438-6.438,6.438l0,0
		c-3.556,0-6.438-2.881-6.438-6.438l0,0c0-3.555,2.883-6.438,6.438-6.438l0,0C237.22,162.063,240.103,164.945,240.103,168.5
		L240.103,168.5z"/>
	<path id="obj5" fill="#F2F7C8" stroke="#00508C" d="M166.438,198.619c0,3.555-2.883,6.438-6.438,6.438l0,0
		c-3.555,0-6.438-2.883-6.438-6.438l0,0c0-3.555,2.883-6.438,6.438-6.438l0,0C163.557,192.182,166.438,195.064,166.438,198.619
		L166.438,198.619z"/>
	<path id="obj4" fill="#F2F7C8" stroke="#00508C" d="M82.122,168.499c0,3.556,2.883,6.438,6.438,6.438l0,0
		c3.555,0,6.438-2.882,6.438-6.438l0,0c0-3.556-2.883-6.437-6.438-6.437l0,0C85.005,162.063,82.122,164.944,82.122,168.499
		L82.122,168.499z"/>
	<path id="obj3" fill="#F2F7C8" stroke="#00508C" d="M65.832,164.754c0,3.557,2.883,6.438,6.438,6.438l0,0
		c3.555,0,6.438-2.881,6.438-6.438l0,0c0-3.555-2.883-6.437-6.438-6.437l0,0C68.715,158.318,65.832,161.2,65.832,164.754
		L65.832,164.754z"/>
	<path id="obj2" fill="#F2F7C8" stroke="#00508C" d="M49.062,162.063c0,3.557,2.883,6.438,6.438,6.438l0,0
		c3.556,0,6.438-2.881,6.438-6.438l0,0c0-3.555-2.883-6.437-6.438-6.437l0,0C51.944,155.626,49.062,158.509,49.062,162.063
		L49.062,162.063z"/>
	<path id="obj1" fill="#F2F7C8" stroke="#00508C" d="M33.748,158.317c0,3.555,2.883,6.437,6.438,6.437l0,0
		c3.555,0,6.438-2.882,6.438-6.437l0,0c0-3.556-2.883-6.438-6.438-6.438l0,0C36.631,151.881,33.748,154.762,33.748,158.317
		L33.748,158.317z"/>
</g>
</svg>
