<?xml version="1.0" encoding="utf-8"?>
<!-- Generator: Adobe Illustrator 16.0.2, SVG Export Plug-In . SVG Version: 6.00 Build 0)  -->
<!DOCTYPE svg PUBLIC "-//W3C//DTD SVG 1.1//EN" "http://www.w3.org/Graphics/SVG/1.1/DTD/svg11.dtd">
<svg version="1.1" xmlns="http://www.w3.org/2000/svg" xmlns:xlink="http://www.w3.org/1999/xlink" x="0px" y="0px" width="320px"
	 height="320px" viewBox="0 0 320 320" enable-background="new 0 0 320 320" xml:space="preserve">
<g id="plane">
	<g transform="matrix(1,0,0,-1,0,64)">
		<path fill="#9FBAFF" stroke="#0014AA" d="M160-255h0.5l2,1.5l3.5,5l4,9.5l3,12.5l1,12.5l0.5,13.5v57l32.5,23l-1.5-4l-1,1.5l-1-1.5
			l-1,0.5l-0.5-1.5l-1-4.5l-0.5-6.5v-8l0.5-6l0.5-2l1-1h16l1,1l0.5,2l1,6v8l-0.5,6.5l-2,7l-0.5-1.5l-0.5,1.5l-0.5-1.5l-1,1.5l-1-1.5
			l-2,8l87.5,61l3,3l2,3l6,10v5l-8-7L300-44l-4.5-2.5l-37.5-16l-0.5,4l-1,1.5l-1.5-3l-0.5-4l-19-8l-0.5,4l-1,1.5l-1.5-3.5l-0.5-3.5
			l-16-7h-10l-0.5,3.5l-1,2l-1-2l-0.5-3.5h-28.5v65l-0.5,9l-0.5,8L171,18v2l1,2l35,32l1,1.5l0.5,1.5l2,6.5l-46-17L161,61h-2
			l-3.5-14.5l-46,17l2-6.5l0.5-1.5l1-1.5l35-32l1-2v-2l-2.5-16.5L146-7l-0.5-8.5v-65H117l-0.5,3.5l-1,2.5l-1-2.5l-0.5-3.5h-10
			l-16.5,7l-0.5,3l-1.5,3l-1-1.5L84-72.5L66-64l-0.5,3L64-58l-1-1.5l-0.5-3l-38,16L20-44l-3.5,2.5l-8,7v-5l6-10l2-3l3-3l87.5-61
			l-2-8l-1,1.5l-1-1.5l-0.5,1.5l-0.5-1.5l-0.5,1.5l-1.5-7l-0.5-6.5v-8l0.5-6l0.5-2l1-1h16l1,1l0.5,2l0.5,6v8L119-130l-1,4.5
			l-0.5,1.5l-1-0.5l-1,1.5l-1-1.5l-1.5,4l32.5-23v-57L146-214l1-12.5l3-12.5l4-9.5l3.5-5l2-1.5H160z"/>
	</g>
</g>
<g id="objGroup">
	<path id="obj9" fill="#F2F7C8" stroke="#00508C" d="M286,135.198c0,3.556-2.883,6.437-6.438,6.437l0,0
		c-3.555,0-6.438-2.881-6.438-6.437l0,0c0-3.555,2.883-6.437,6.438-6.437l0,0C283.117,128.762,286,131.644,286,135.198L286,135.198z
		"/>
	<path id="obj8" fill="#F2F7C8" stroke="#00508C" d="M267.187,148.071c0,3.555-2.883,6.437-6.438,6.437l0,0
		c-3.555,0-6.438-2.882-6.438-6.437l0,0c0-3.556,2.883-6.437,6.438-6.437l0,0C264.304,141.635,267.187,144.516,267.187,148.071
		L267.187,148.071z"/>
	<path id="obj7" fill="#F2F7C8" stroke="#00508C" d="M247.624,160.944c0,3.555-2.883,6.437-6.438,6.437l0,0
		c-3.556,0-6.438-2.882-6.438-6.437l0,0c0-3.556,2.883-6.437,6.438-6.437l0,0C244.741,154.508,247.624,157.389,247.624,160.944
		L247.624,160.944z"/>
	<path id="obj6" fill="#F2F7C8" stroke="#00508C" d="M227.626,173.258c0,3.556-2.883,6.437-6.438,6.437l0,0
		c-3.556,0-6.438-2.881-6.438-6.437l0,0c0-3.555,2.883-6.437,6.438-6.437l0,0C224.743,166.821,227.626,169.703,227.626,173.258
		L227.626,173.258z"/>
	<path id="obj5" fill="#F2F7C8" stroke="#00508C" d="M169.522,173.258c0,3.555-2.883,6.437-6.438,6.437l0,0
		c-3.555,0-6.438-2.882-6.438-6.437l0,0c0-3.556,2.883-6.437,6.438-6.437l0,0C166.64,166.821,169.522,169.702,169.522,173.258
		L169.522,173.258z"/>
	<path id="obj4" fill="#F2F7C8" stroke="#00508C" d="M90.206,173.817c0,3.555,2.883,6.437,6.438,6.437l0,0
		c3.555,0,6.438-2.882,6.438-6.437l0,0c0-3.556-2.883-6.437-6.438-6.437l0,0C93.089,167.381,90.206,170.262,90.206,173.817
		L90.206,173.817z"/>
	<path id="obj3" fill="#F2F7C8" stroke="#00508C" d="M71.708,160.944c0,3.556,2.883,6.437,6.438,6.437l0,0
		c3.555,0,6.438-2.881,6.438-6.437l0,0c0-3.555-2.883-6.437-6.438-6.437l0,0C74.591,154.508,71.708,157.39,71.708,160.944
		L71.708,160.944z"/>
	<path id="obj2" fill="#F2F7C8" stroke="#00508C" d="M55.646,148.071c0,3.556,2.883,6.437,6.438,6.437l0,0
		c3.556,0,6.438-2.881,6.438-6.437l0,0c0-3.555-2.883-6.437-6.438-6.437l0,0C58.528,141.635,55.646,144.517,55.646,148.071
		L55.646,148.071z"/>
	<path id="obj1" fill="#F2F7C8" stroke="#00508C" d="M36.832,135.198c0,3.555,2.883,6.437,6.438,6.437l0,0
		c3.555,0,6.438-2.882,6.438-6.437l0,0c0-3.556-2.883-6.437-6.438-6.437l0,0C39.715,128.762,36.832,131.643,36.832,135.198
		L36.832,135.198z"/>
</g>
</svg>
